<svg data-v-423bf9ae="" xmlns="http://www.w3.org/2000/svg" viewBox="0 0 301.5136226267367 60" class="font"><!----><!----><!----><g data-v-423bf9ae="" id="c428a5cf-0204-4a2c-a486-5b93cdaea439" fill="white" transform="matrix(6.054490506946714,0,0,6.054490506946714,-4.661954408409201,-4.2381440575479346)"><path d="M0.77 3.58L0.77 10.50L1.46 10.50L1.46 6.47C1.46 5.21 2.45 4.17 3.74 4.16C4.14 4.16 4.55 4.26 4.91 4.48L5.22 3.92C4.76 3.64 4.26 3.50 3.74 3.51C2.86 3.51 1.88 3.88 1.44 4.82L1.41 3.58ZM11.47 9.07C10.91 9.63 10.15 9.93 9.41 9.93C7.84 9.93 6.52 8.90 6.52 7.04C6.52 5.18 7.84 4.16 9.41 4.16C10.15 4.16 10.92 4.42 11.48 4.98L11.93 4.55C11.23 3.86 10.32 3.51 9.41 3.51C7.41 3.51 5.85 4.86 5.85 7.04C5.85 9.23 7.46 10.57 9.41 10.57C10.32 10.57 11.23 10.23 11.93 9.53ZM19.29 3.58L19.29 5.10C18.72 4.02 17.58 3.50 16.46 3.50C14.53 3.50 12.95 4.93 12.95 7.04C12.95 9.16 14.53 10.61 16.46 10.61C17.58 10.61 18.62 10.11 19.29 9.03L19.29 10.50L19.98 10.50C19.98 8.19 19.98 5.89 19.98 3.58ZM16.46 4.16C20.31 4.16 20.31 9.94 16.46 9.94C14.90 9.94 13.64 8.78 13.64 7.04C13.64 5.31 14.90 4.16 16.46 4.16ZM21.84 3.58L21.84 10.50L22.53 10.50L22.53 6.47C22.53 5.21 23.52 4.17 24.81 4.16C25.21 4.16 25.62 4.26 25.98 4.48L26.29 3.92C25.83 3.64 25.33 3.50 24.81 3.51C23.93 3.51 22.95 3.88 22.51 4.82L22.48 3.58ZM30.84 4.13C32.40 4.13 33.67 5.10 33.67 7.04C33.67 8.96 32.40 9.94 30.84 9.94C29.22 9.94 28.01 8.75 28.01 7.03C28.01 5.31 29.25 4.13 30.84 4.13ZM27.33 0.70L27.33 10.50L28 10.50L28 8.97C28.57 10.02 29.71 10.61 30.88 10.61C32.82 10.61 34.34 9.34 34.34 7.04C34.34 4.76 32.80 3.47 30.87 3.47C29.68 3.47 28.56 3.98 28 5.10L28 0.70ZM39.21 10.60C41.16 10.60 42.73 9.25 42.73 7.06C42.73 4.86 41.16 3.46 39.21 3.46C37.27 3.46 35.70 4.86 35.70 7.06C35.70 9.25 37.27 10.60 39.21 10.60ZM39.21 9.93C37.65 9.93 36.37 8.85 36.37 7.06C36.37 5.26 37.65 4.10 39.21 4.10C40.78 4.10 42.06 5.26 42.06 7.06C42.06 8.85 40.78 9.93 39.21 9.93ZM44.31 3.58L44.31 10.50L45.00 10.50L45.00 6.65C45.00 5.22 45.99 4.14 47.42 4.13C48.92 4.12 49.88 4.96 49.88 6.52L49.88 10.50L50.57 10.50L50.57 6.51C50.57 4.59 49.29 3.46 47.45 3.46C46.48 3.47 45.51 3.86 44.98 4.82L44.98 3.58Z"></path></g><!----><!----></svg>